<svg width="450" height="80" fill="none" xmlns="http://www.w3.org/2000/svg"><path d="M87.18 57h10.56v1.7h-8.58v4h4.36c1.667 0 2.933.347 3.8 1.04.867.693 1.3 1.693 1.3 3 0 1.373-.473 2.427-1.42 3.16-.933.733-2.273 1.1-4.02 1.1h-6V57zm5.92 12.42c1.147 0 2.02-.22 2.62-.66.6-.44.9-1.087.9-1.94 0-1.693-1.173-2.54-3.52-2.54h-3.94v5.14h3.94zm14.009-9.12c1.027 0 1.947.227 2.76.68a4.823 4.823 0 011.9 1.9c.467.813.7 1.753.7 2.82s-.233 2.013-.7 2.84a4.823 4.823 0 01-1.9 1.9c-.813.453-1.733.68-2.76.68a4.98 4.98 0 01-2.1-.44 4.366 4.366 0 01-1.6-1.28v5.48h-1.92V60.4h1.84v1.68a4.001 4.001 0 011.62-1.32 5.017 5.017 0 012.16-.46zm-.16 9.14c.68 0 1.287-.153 1.82-.46.547-.32.973-.76 1.28-1.32.32-.573.48-1.227.48-1.96 0-.733-.16-1.38-.48-1.94a3.216 3.216 0 00-1.28-1.32c-.533-.307-1.14-.46-1.82-.46-.667 0-1.273.16-1.82.48a3.43 3.43 0 00-1.28 1.3c-.307.56-.46 1.207-.46 1.94 0 .733.153 1.387.46 1.96.307.56.733 1 1.28 1.32.547.307 1.153.46 1.82.46zm12.849 1.68c-1.053 0-2-.233-2.84-.7a5.17 5.17 0 01-1.98-1.92c-.466-.827-.7-1.76-.7-2.8 0-1.04.234-1.967.7-2.78a4.986 4.986 0 011.98-1.92c.84-.467 1.787-.7 2.84-.7 1.054 0 1.994.233 2.82.7a4.847 4.847 0 011.96 1.92c.48.813.72 1.74.72 2.78 0 1.04-.24 1.973-.72 2.8a5.022 5.022 0 01-1.96 1.92c-.826.467-1.766.7-2.82.7zm0-1.68c.68 0 1.287-.153 1.82-.46.547-.32.974-.76 1.28-1.32.307-.573.46-1.227.46-1.96 0-.733-.153-1.38-.46-1.94a3.21 3.21 0 00-1.28-1.32c-.533-.307-1.14-.46-1.82-.46-.68 0-1.293.153-1.84.46-.533.307-.96.747-1.28 1.32-.306.56-.46 1.207-.46 1.94 0 .733.154 1.387.46 1.96.32.56.747 1 1.28 1.32.547.307 1.16.46 1.84.46zm8.273-9.04h1.92v4.5h6.04v-4.5h1.92V71h-1.92v-4.44h-6.04V71h-1.92V60.4zm22.993-.1c1.027 0 1.947.233 2.76.7a4.913 4.913 0 011.92 1.92c.467.813.7 1.74.7 2.78 0 1.04-.233 1.973-.7 2.8a5.096 5.096 0 01-1.92 1.92c-.813.467-1.733.7-2.76.7-.933 0-1.78-.193-2.54-.58a5.134 5.134 0 01-1.88-1.62 5.514 5.514 0 01-.9-2.4h-2.14V71h-1.92V60.4h1.92v4.34h2.16c.134-.88.44-1.653.92-2.32a4.901 4.901 0 011.86-1.56c.76-.373 1.6-.56 2.52-.56zm0 9.14c.654 0 1.24-.153 1.76-.46.534-.307.954-.74 1.26-1.3.307-.573.46-1.233.46-1.98 0-.733-.153-1.38-.46-1.94a3.245 3.245 0 00-1.26-1.32 3.397 3.397 0 00-1.76-.46c-.653 0-1.246.153-1.78.46a3.258 3.258 0 00-1.26 1.32c-.293.56-.44 1.207-.44 1.94 0 .747.147 1.407.44 1.98.307.56.727.993 1.26 1.3.534.307 1.127.46 1.78.46zm15.36-3.94c1.373.347 2.06 1.207 2.06 2.58 0 .933-.354 1.653-1.06 2.16-.694.507-1.734.76-3.12.76h-5.1V60.4h4.92c1.253 0 2.233.24 2.94.72.706.467 1.06 1.133 1.06 2 0 .56-.154 1.047-.46 1.46-.294.4-.707.707-1.24.92zm-5.34-.54h2.88c.733 0 1.286-.133 1.66-.4.386-.267.58-.653.58-1.16 0-1.013-.747-1.52-2.24-1.52h-2.88v3.08zm3.08 4.56c.8 0 1.4-.127 1.8-.38.4-.253.6-.647.6-1.18 0-.547-.187-.953-.56-1.22-.36-.267-.934-.4-1.72-.4h-3.2v3.18h3.08zm11.105-9.22c1.467 0 2.587.36 3.36 1.08.787.72 1.18 1.793 1.18 3.22V71h-1.82v-1.4c-.32.493-.78.873-1.38 1.14-.587.253-1.287.38-2.1.38-1.187 0-2.14-.287-2.86-.86-.707-.573-1.06-1.327-1.06-2.26 0-.933.34-1.68 1.02-2.24.68-.573 1.76-.86 3.24-.86h3.04v-.38c0-.827-.24-1.46-.72-1.9-.48-.44-1.187-.66-2.12-.66-.627 0-1.24.107-1.84.32-.6.2-1.107.473-1.52.82l-.8-1.44c.547-.44 1.2-.773 1.96-1 .76-.24 1.567-.36 2.42-.36zm-.44 9.34c.733 0 1.367-.16 1.9-.48.533-.333.92-.8 1.16-1.4v-1.48h-2.96c-1.627 0-2.44.547-2.44 1.64 0 .533.207.953.62 1.26.413.307.987.46 1.72.46zm8.437-9.24h1.92v4.5h6.04v-4.5h1.92V71h-1.92v-4.44h-6.04V71h-1.92V60.4zm13.614 0h1.92v4.5h6.04v-4.5h1.92V71h-1.92v-4.44h-6.04V71h-1.92V60.4zm22.113 0V71h-1.72v-3.36h-3.3l-2.32 3.36h-2.06l2.58-3.62c-.8-.24-1.414-.633-1.84-1.18-.427-.56-.64-1.253-.64-2.08 0-1.213.413-2.133 1.24-2.76.826-.64 1.966-.96 3.42-.96h4.64zm-7.34 3.78c0 .707.22 1.233.66 1.58.453.333 1.126.5 2.02.5h2.94v-4.18h-2.86c-1.84 0-2.76.7-2.76 2.1zm21.077 6.94c-1.08 0-2.047-.233-2.9-.7a5.17 5.17 0 01-1.98-1.92c-.48-.827-.72-1.76-.72-2.8 0-1.04.24-1.967.72-2.78a4.986 4.986 0 011.98-1.92c.853-.467 1.82-.7 2.9-.7.96 0 1.813.193 2.56.58a4.12 4.12 0 011.76 1.68l-1.46.94a3.261 3.261 0 00-1.24-1.14 3.536 3.536 0 00-1.64-.38 3.85 3.85 0 00-1.88.46c-.547.307-.98.747-1.3 1.32-.307.56-.46 1.207-.46 1.94 0 .747.153 1.407.46 1.98.32.56.753.993 1.3 1.3a3.85 3.85 0 001.88.46c.6 0 1.147-.127 1.64-.38a3.261 3.261 0 001.24-1.14l1.46.92c-.413.733-1 1.3-1.76 1.7-.747.387-1.6.58-2.56.58zm10.586-10.82c1.466 0 2.586.36 3.36 1.08.786.72 1.18 1.793 1.18 3.22V71h-1.82v-1.4c-.32.493-.78.873-1.38 1.14-.587.253-1.287.38-2.1.38-1.187 0-2.14-.287-2.86-.86-.707-.573-1.06-1.327-1.06-2.26 0-.933.34-1.68 1.02-2.24.68-.573 1.76-.86 3.24-.86h3.04v-.38c0-.827-.24-1.46-.72-1.9-.48-.44-1.187-.66-2.12-.66-.627 0-1.24.107-1.84.32-.6.2-1.107.473-1.52.82l-.8-1.44c.546-.44 1.2-.773 1.96-1 .76-.24 1.566-.36 2.42-.36zm-.44 9.34c.733 0 1.366-.16 1.9-.48.533-.333.92-.8 1.16-1.4v-1.48h-2.96c-1.627 0-2.44.547-2.44 1.64 0 .533.206.953.62 1.26.413.307.986.46 1.72.46zm8.437-9.24h1.92v4.5h6.04v-4.5h1.92V71h-1.92v-4.44h-6.04V71h-1.92V60.4zm17.393-.1c1.467 0 2.587.36 3.36 1.08.787.72 1.18 1.793 1.18 3.22V71h-1.82v-1.4c-.32.493-.78.873-1.38 1.14-.586.253-1.286.38-2.1.38-1.186 0-2.14-.287-2.86-.86-.706-.573-1.06-1.327-1.06-2.26 0-.933.34-1.68 1.02-2.24.68-.573 1.76-.86 3.24-.86h3.04v-.38c0-.827-.24-1.46-.72-1.9-.48-.44-1.186-.66-2.12-.66-.626 0-1.24.107-1.84.32-.6.2-1.106.473-1.52.82l-.8-1.44c.547-.44 1.2-.773 1.96-1 .76-.24 1.567-.36 2.42-.36zm-.44 9.34c.734 0 1.367-.16 1.9-.48.534-.333.92-.8 1.16-1.4v-1.48h-2.96c-1.626 0-2.44.547-2.44 1.64 0 .533.207.953.62 1.26.414.307.987.46 1.72.46zm16.338-7.56h-3.88V71h-1.92v-8.92h-3.88V60.4h9.68v1.68zm6.034 9.04c-1.053 0-2-.233-2.84-.7a5.17 5.17 0 01-1.98-1.92c-.466-.827-.7-1.76-.7-2.8 0-1.04.234-1.967.7-2.78a4.986 4.986 0 011.98-1.92c.84-.467 1.787-.7 2.84-.7 1.054 0 1.994.233 2.82.7a4.847 4.847 0 011.96 1.92c.48.813.72 1.74.72 2.78 0 1.04-.24 1.973-.72 2.8a5.022 5.022 0 01-1.96 1.92c-.826.467-1.766.7-2.82.7zm0-1.68c.68 0 1.287-.153 1.82-.46.547-.32.974-.76 1.28-1.32.307-.573.46-1.227.46-1.96 0-.733-.153-1.38-.46-1.94a3.21 3.21 0 00-1.28-1.32c-.533-.307-1.14-.46-1.82-.46-.68 0-1.293.153-1.84.46-.533.307-.96.747-1.28 1.32-.306.56-.46 1.207-.46 1.94 0 .733.154 1.387.46 1.96.32.56.747 1 1.28 1.32.547.307 1.16.46 1.84.46zm13.893-9.14c1.026 0 1.946.227 2.76.68a4.829 4.829 0 011.9 1.9c.466.813.7 1.753.7 2.82s-.234 2.013-.7 2.84a4.829 4.829 0 01-1.9 1.9c-.814.453-1.734.68-2.76.68a4.98 4.98 0 01-2.1-.44 4.366 4.366 0 01-1.6-1.28v5.48h-1.92V60.4h1.84v1.68a3.988 3.988 0 011.62-1.32 5.017 5.017 0 012.16-.46zm-.16 9.14c.68 0 1.286-.153 1.82-.46.546-.32.973-.76 1.28-1.32.32-.573.48-1.227.48-1.96 0-.733-.16-1.38-.48-1.94a3.222 3.222 0 00-1.28-1.32c-.534-.307-1.14-.46-1.82-.46-.667 0-1.274.16-1.82.48-.534.307-.96.74-1.28 1.3-.307.56-.46 1.207-.46 1.94 0 .733.153 1.387.46 1.96.306.56.733 1 1.28 1.32a3.65 3.65 0 001.82.46zm8.309-9.04h1.92V71h-1.92V60.4zm.96-2.04c-.373 0-.686-.12-.94-.36-.24-.24-.36-.533-.36-.88s.12-.64.36-.88a1.28 1.28 0 01.94-.38c.374 0 .68.12.92.36.254.227.38.513.38.86 0 .36-.126.667-.38.92-.24.24-.546.36-.92.36zm4.664 2.04h1.92V71h-1.92V60.4zm-.46-1.9a.976.976 0 01-.72-.28c-.186-.2-.28-.44-.28-.72 0-.293.094-.533.28-.72.187-.2.427-.3.72-.3.28 0 .514.1.7.3.187.187.28.427.28.72a.973.973 0 01-.28.72.949.949 0 01-.7.28zm2.84 0a.95.95 0 01-.7-.28c-.186-.2-.28-.44-.28-.72 0-.293.094-.533.28-.72.187-.2.42-.3.7-.3.294 0 .534.1.72.3.187.187.28.427.28.72a.973.973 0 01-.28.72.972.972 0 01-.72.28zm10.466 7c1.374.347 2.06 1.207 2.06 2.58 0 .933-.353 1.653-1.06 2.16-.693.507-1.733.76-3.12.76h-5.1V60.4h4.92c1.254 0 2.234.24 2.94.72.707.467 1.06 1.133 1.06 2 0 .56-.153 1.047-.46 1.46-.293.4-.706.707-1.24.92zm-5.34-.54h2.88c.734 0 1.287-.133 1.66-.4.387-.267.58-.653.58-1.16 0-1.013-.746-1.52-2.24-1.52h-2.88v3.08zm3.08 4.56c.8 0 1.4-.127 1.8-.38.4-.253.6-.647.6-1.18 0-.547-.186-.953-.56-1.22-.36-.267-.933-.4-1.72-.4h-3.2v3.18h3.08zm20.597-7.44h-3.88V71h-1.92v-8.92h-3.88V60.4h9.68v1.68zm5.743-1.78c1.467 0 2.587.36 3.36 1.08.787.72 1.18 1.793 1.18 3.22V71h-1.82v-1.4c-.32.493-.78.873-1.38 1.14-.587.253-1.287.38-2.1.38-1.187 0-2.14-.287-2.86-.86-.707-.573-1.06-1.327-1.06-2.26 0-.933.34-1.68 1.02-2.24.68-.573 1.76-.86 3.24-.86h3.04v-.38c0-.827-.24-1.46-.72-1.9-.48-.44-1.187-.66-2.12-.66-.627 0-1.24.107-1.84.32-.6.2-1.107.473-1.52.82l-.8-1.44c.547-.44 1.2-.773 1.96-1 .76-.24 1.567-.36 2.42-.36zm-.44 9.34c.733 0 1.367-.16 1.9-.48.533-.333.92-.8 1.16-1.4v-1.48h-2.96c-1.627 0-2.44.547-2.44 1.64 0 .533.207.953.62 1.26.413.307.987.46 1.72.46zm21.608-7.56h-5.88V71h-1.92V60.4h7.8v1.68zm6.037 9.04c-1.053 0-2-.233-2.84-.7a5.17 5.17 0 01-1.98-1.92c-.467-.827-.7-1.76-.7-2.8 0-1.04.233-1.967.7-2.78a4.986 4.986 0 011.98-1.92c.84-.467 1.787-.7 2.84-.7s1.993.233 2.82.7a4.854 4.854 0 011.96 1.92c.48.813.72 1.74.72 2.78 0 1.04-.24 1.973-.72 2.8a5.029 5.029 0 01-1.96 1.92c-.827.467-1.767.7-2.82.7zm0-1.68c.68 0 1.287-.153 1.82-.46.547-.32.973-.76 1.28-1.32.307-.573.46-1.227.46-1.96 0-.733-.153-1.38-.46-1.94a3.216 3.216 0 00-1.28-1.32c-.533-.307-1.14-.46-1.82-.46-.68 0-1.293.153-1.84.46-.533.307-.96.747-1.28 1.32-.307.56-.46 1.207-.46 1.94 0 .733.153 1.387.46 1.96.32.56.747 1 1.28 1.32.547.307 1.16.46 1.84.46zm15.782-7.36h-3.88V71h-1.92v-8.92h-3.88V60.4h9.68v1.68zm11.075 3.68c0 .147-.014.34-.04.58h-8.6c.12.933.526 1.687 1.22 2.26.706.56 1.58.84 2.62.84 1.266 0 2.286-.427 3.06-1.28l1.06 1.24c-.48.56-1.08.987-1.8 1.28-.707.293-1.5.44-2.38.44-1.12 0-2.114-.227-2.98-.68a5.053 5.053 0 01-2.02-1.94c-.467-.827-.7-1.76-.7-2.8 0-1.027.226-1.953.68-2.78a4.957 4.957 0 011.9-1.92c.813-.467 1.726-.7 2.74-.7 1.013 0 1.913.233 2.7.7.8.453 1.42 1.093 1.86 1.92.453.827.68 1.773.68 2.84zm-5.24-3.84c-.92 0-1.694.28-2.32.84-.614.56-.974 1.293-1.08 2.2h6.8c-.107-.893-.474-1.62-1.1-2.18-.614-.573-1.38-.86-2.3-.86zm17.142-1.52V71h-1.92v-8.92h-4.56l-.12 2.36c-.066 1.427-.193 2.62-.38 3.58-.186.947-.493 1.707-.92 2.28-.426.573-1.02.86-1.78.86-.346 0-.74-.06-1.18-.18l.12-1.62c.174.04.334.06.48.06.534 0 .934-.233 1.2-.7.267-.467.44-1.02.52-1.66.08-.64.154-1.553.22-2.74l.18-3.92h8.14zm13.293 5.36c0 .147-.013.34-.04.58h-8.6c.12.933.527 1.687 1.22 2.26.707.56 1.58.84 2.62.84 1.267 0 2.287-.427 3.06-1.28l1.06 1.24c-.48.56-1.08.987-1.8 1.28-.707.293-1.5.44-2.38.44-1.12 0-2.113-.227-2.98-.68a5.053 5.053 0 01-2.02-1.94c-.467-.827-.7-1.76-.7-2.8 0-1.027.227-1.953.68-2.78a4.964 4.964 0 011.9-1.92c.813-.467 1.727-.7 2.74-.7 1.013 0 1.913.233 2.7.7.8.453 1.42 1.093 1.86 1.92.453.827.68 1.773.68 2.84zm-5.24-3.84c-.92 0-1.693.28-2.32.84-.613.56-.973 1.293-1.08 2.2h6.8c-.107-.893-.473-1.62-1.1-2.18-.613-.573-1.38-.86-2.3-.86zm8.218-1.52h1.92v7.72l6.5-7.72h1.74V71h-1.92v-7.72l-6.48 7.72h-1.76V60.4zm4.96-1.38c-.986 0-1.753-.233-2.3-.7-.546-.48-.826-1.167-.84-2.06h1.3c.014.493.18.893.5 1.2.334.293.774.44 1.32.44.547 0 .987-.147 1.32-.44.334-.307.507-.707.52-1.2h1.34c-.013.893-.3 1.58-.86 2.06-.56.467-1.326.7-2.3.7z" fill="#BD7F5C"/><path d="M108.444 13.572L98.826 36h-5.418L83.79 13.572h5.46l6.972 16.632 7.182-16.632h5.04zm9.924 22.722a20.08 20.08 0 01-5.334-.714c-1.736-.476-3.122-1.078-4.158-1.806l2.016-3.99c1.008.672 2.212 1.218 3.612 1.638 1.428.392 2.828.588 4.2.588 3.136 0 4.704-.826 4.704-2.478 0-.784-.406-1.33-1.218-1.638-.784-.308-2.058-.602-3.822-.882-1.848-.28-3.36-.602-4.536-.966a7.182 7.182 0 01-3.024-1.89c-.84-.924-1.26-2.198-1.26-3.822 0-2.128.882-3.822 2.646-5.082 1.792-1.288 4.2-1.932 7.224-1.932 1.54 0 3.08.182 4.62.546 1.54.336 2.8.798 3.78 1.386l-2.016 3.99c-1.904-1.12-4.046-1.68-6.426-1.68-1.54 0-2.716.238-3.528.714-.784.448-1.176 1.05-1.176 1.806 0 .84.42 1.442 1.26 1.806.868.336 2.198.658 3.99.966 1.792.28 3.262.602 4.41.966a6.752 6.752 0 012.94 1.848c.84.868 1.26 2.1 1.26 3.696 0 2.1-.91 3.78-2.73 5.04-1.82 1.26-4.298 1.89-7.434 1.89zm35.769-11.382c0 .364-.028.882-.084 1.554h-17.598c.308 1.652 1.106 2.968 2.394 3.948 1.316.952 2.94 1.428 4.872 1.428 2.464 0 4.494-.812 6.09-2.436l2.814 3.234c-1.008 1.204-2.282 2.114-3.822 2.73-1.54.616-3.276.924-5.208.924-2.464 0-4.634-.49-6.51-1.47-1.876-.98-3.332-2.338-4.368-4.074-1.008-1.764-1.512-3.752-1.512-5.964 0-2.184.49-4.144 1.47-5.88a10.681 10.681 0 014.158-4.116c1.764-.98 3.752-1.47 5.964-1.47 2.184 0 4.13.49 5.838 1.47 1.736.952 3.08 2.31 4.032 4.074.98 1.736 1.47 3.752 1.47 6.048zm-11.34-7.392c-1.68 0-3.108.504-4.284 1.512-1.148.98-1.848 2.296-2.1 3.948h12.726c-.224-1.624-.91-2.94-2.058-3.948-1.148-1.008-2.576-1.512-4.284-1.512zm23.313 18.774a20.08 20.08 0 01-5.334-.714c-1.736-.476-3.122-1.078-4.158-1.806l2.016-3.99c1.008.672 2.212 1.218 3.612 1.638 1.428.392 2.828.588 4.2.588 3.136 0 4.704-.826 4.704-2.478 0-.784-.406-1.33-1.218-1.638-.784-.308-2.058-.602-3.822-.882-1.848-.28-3.36-.602-4.536-.966a7.182 7.182 0 01-3.024-1.89c-.84-.924-1.26-2.198-1.26-3.822 0-2.128.882-3.822 2.646-5.082 1.792-1.288 4.2-1.932 7.224-1.932 1.54 0 3.08.182 4.62.546 1.54.336 2.8.798 3.78 1.386l-2.016 3.99c-1.904-1.12-4.046-1.68-6.426-1.68-1.54 0-2.716.238-3.528.714-.784.448-1.176 1.05-1.176 1.806 0 .84.42 1.442 1.26 1.806.868.336 2.198.658 3.99.966 1.792.28 3.262.602 4.41.966a6.752 6.752 0 012.94 1.848c.84.868 1.26 2.1 1.26 3.696 0 2.1-.91 3.78-2.73 5.04-1.82 1.26-4.298 1.89-7.434 1.89zm23.254-22.974c3.304 0 5.824.798 7.56 2.394 1.764 1.568 2.646 3.948 2.646 7.14V36h-4.956v-2.73c-.644.98-1.568 1.736-2.772 2.268-1.176.504-2.604.756-4.284.756-1.68 0-3.15-.28-4.41-.84-1.26-.588-2.24-1.386-2.94-2.394-.672-1.036-1.008-2.198-1.008-3.486 0-2.016.742-3.626 2.226-4.83 1.512-1.232 3.878-1.848 7.098-1.848h5.796v-.336c0-1.568-.476-2.772-1.428-3.612-.924-.84-2.31-1.26-4.158-1.26-1.26 0-2.506.196-3.738.588-1.204.392-2.226.938-3.066 1.638l-2.058-3.822c1.176-.896 2.59-1.582 4.242-2.058 1.652-.476 3.402-.714 5.25-.714zm-.714 19.152c1.316 0 2.478-.294 3.486-.882a4.987 4.987 0 002.184-2.604v-2.604h-5.418c-3.024 0-4.536.994-4.536 2.982 0 .952.378 1.708 1.134 2.268.756.56 1.806.84 3.15.84zm30.383-19.152c2.828 0 5.096.826 6.804 2.478 1.708 1.652 2.562 4.102 2.562 7.35V36h-5.25V23.82c0-1.96-.462-3.43-1.386-4.41-.924-1.008-2.24-1.512-3.948-1.512-1.932 0-3.458.588-4.578 1.764-1.12 1.148-1.68 2.814-1.68 4.998V36h-5.25V13.572h4.998v2.898c.868-1.036 1.96-1.82 3.276-2.352 1.316-.532 2.8-.798 4.452-.798zm24.594 0c3.304 0 5.824.798 7.56 2.394 1.764 1.568 2.646 3.948 2.646 7.14V36h-4.956v-2.73c-.644.98-1.568 1.736-2.772 2.268-1.176.504-2.604.756-4.284.756-1.68 0-3.15-.28-4.41-.84-1.26-.588-2.24-1.386-2.94-2.394-.672-1.036-1.008-2.198-1.008-3.486 0-2.016.742-3.626 2.226-4.83 1.512-1.232 3.878-1.848 7.098-1.848h5.796v-.336c0-1.568-.476-2.772-1.428-3.612-.924-.84-2.31-1.26-4.158-1.26-1.26 0-2.506.196-3.738.588-1.204.392-2.226.938-3.066 1.638l-2.058-3.822c1.176-.896 2.59-1.582 4.242-2.058 1.652-.476 3.402-.714 5.25-.714zm-.714 19.152c1.316 0 2.478-.294 3.486-.882a4.987 4.987 0 002.184-2.604v-2.604h-5.418c-3.024 0-4.536.994-4.536 2.982 0 .952.378 1.708 1.134 2.268.756.56 1.806.84 3.15.84zm31.14 2.31c-.616.504-1.372.882-2.268 1.134a9.897 9.897 0 01-2.772.378c-2.464 0-4.368-.644-5.712-1.932-1.344-1.288-2.016-3.164-2.016-5.628V17.94h-3.696v-4.2h3.696V8.616h5.25v5.124h6.006v4.2h-6.006v10.668c0 1.092.266 1.932.798 2.52.532.56 1.302.84 2.31.84 1.176 0 2.156-.308 2.94-.924l1.47 3.738zm13.66 1.512c-2.268 0-4.312-.49-6.132-1.47-1.82-.98-3.248-2.338-4.284-4.074-1.008-1.764-1.512-3.752-1.512-5.964 0-2.212.504-4.186 1.512-5.922 1.036-1.736 2.464-3.094 4.284-4.074 1.82-.98 3.864-1.47 6.132-1.47 2.296 0 4.354.49 6.174 1.47 1.82.98 3.234 2.338 4.242 4.074 1.036 1.736 1.554 3.71 1.554 5.922 0 2.212-.518 4.2-1.554 5.964-1.008 1.736-2.422 3.094-4.242 4.074-1.82.98-3.878 1.47-6.174 1.47zm0-4.494c1.932 0 3.528-.644 4.788-1.932 1.26-1.288 1.89-2.982 1.89-5.082 0-2.1-.63-3.794-1.89-5.082-1.26-1.288-2.856-1.932-4.788-1.932-1.932 0-3.528.644-4.788 1.932-1.232 1.288-1.848 2.982-1.848 5.082 0 2.1.616 3.794 1.848 5.082 1.26 1.288 2.856 1.932 4.788 1.932zm21.989-14.952c1.512-2.352 4.172-3.528 7.98-3.528v4.998a6.665 6.665 0 00-1.218-.126c-2.044 0-3.64.602-4.788 1.806-1.148 1.176-1.722 2.884-1.722 5.124V36h-5.25V13.572h4.998v3.276zm12.433-3.276h5.25V36h-5.25V13.572zm2.646-3.696c-.952 0-1.75-.294-2.394-.882a3.016 3.016 0 01-.966-2.268c0-.896.322-1.638.966-2.226.644-.616 1.442-.924 2.394-.924.952 0 1.75.294 2.394.882.644.56.966 1.274.966 2.142 0 .924-.322 1.708-.966 2.352-.616.616-1.414.924-2.394.924zm9.495 3.696h5.25V36h-5.25V13.572zm2.646-3.696c-.952 0-1.75-.294-2.394-.882a3.016 3.016 0 01-.966-2.268c0-.896.322-1.638.966-2.226.644-.616 1.442-.924 2.394-.924.952 0 1.75.294 2.394.882.644.56.966 1.274.966 2.142 0 .924-.322 1.708-.966 2.352-.616.616-1.414.924-2.394.924zm31.392 26.418c-2.324 0-4.41-.49-6.258-1.47-1.848-.98-3.29-2.338-4.326-4.074-1.036-1.764-1.554-3.752-1.554-5.964 0-2.212.518-4.186 1.554-5.922 1.036-1.736 2.464-3.094 4.284-4.074 1.848-.98 3.948-1.47 6.3-1.47 2.212 0 4.144.448 5.796 1.344 1.68.896 2.94 2.184 3.78 3.864l-4.032 2.352c-.644-1.036-1.456-1.806-2.436-2.31-.952-.532-2.002-.798-3.15-.798-1.96 0-3.584.644-4.872 1.932-1.288 1.26-1.932 2.954-1.932 5.082 0 2.128.63 3.836 1.89 5.124 1.288 1.26 2.926 1.89 4.914 1.89 1.148 0 2.198-.252 3.15-.756.98-.532 1.792-1.316 2.436-2.352l4.032 2.352c-.868 1.68-2.142 2.982-3.822 3.906-1.652.896-3.57 1.344-5.754 1.344zm23.866 0c-2.268 0-4.312-.49-6.132-1.47-1.82-.98-3.248-2.338-4.284-4.074-1.008-1.764-1.512-3.752-1.512-5.964 0-2.212.504-4.186 1.512-5.922 1.036-1.736 2.464-3.094 4.284-4.074 1.82-.98 3.864-1.47 6.132-1.47 2.296 0 4.354.49 6.174 1.47 1.82.98 3.234 2.338 4.242 4.074 1.036 1.736 1.554 3.71 1.554 5.922 0 2.212-.518 4.2-1.554 5.964-1.008 1.736-2.422 3.094-4.242 4.074-1.82.98-3.878 1.47-6.174 1.47zm0-4.494c1.932 0 3.528-.644 4.788-1.932 1.26-1.288 1.89-2.982 1.89-5.082 0-2.1-.63-3.794-1.89-5.082-1.26-1.288-2.856-1.932-4.788-1.932-1.932 0-3.528.644-4.788 1.932-1.232 1.288-1.848 2.982-1.848 5.082 0 2.1.616 3.794 1.848 5.082 1.26 1.288 2.856 1.932 4.788 1.932zm45.299-18.48c2.828 0 5.068.826 6.72 2.478 1.652 1.624 2.478 4.074 2.478 7.35V36h-5.25V23.82c0-1.96-.434-3.43-1.302-4.41-.868-1.008-2.114-1.512-3.738-1.512-1.764 0-3.178.588-4.242 1.764-1.064 1.148-1.596 2.8-1.596 4.956V36h-5.25V23.82c0-1.96-.434-3.43-1.302-4.41-.868-1.008-2.114-1.512-3.738-1.512-1.792 0-3.22.574-4.284 1.722-1.036 1.148-1.554 2.814-1.554 4.998V36h-5.25V13.572h4.998v2.856c.84-1.008 1.89-1.778 3.15-2.31s2.66-.798 4.2-.798c1.68 0 3.164.322 4.452.966a7.1 7.1 0 013.108 2.772c.924-1.176 2.114-2.086 3.57-2.73 1.456-.672 3.066-1.008 4.83-1.008z" fill="#A97456"/><path d="M28.111 55.89c3.432-.714 5.437-4.01 5.437-4.01l.527 20.148s-1.95-.173-3.517-1.053c-1.116-.626-2.253-1.935-3.228-2.684-2.345-1.8-6.014-2.922-7.17-3.398-1.155-.475-3.907-2.854-3.907-2.854s-3.636-3.262-4.417-6.863c-.782-3.602-.748-6.252-.476-7.238.272-.985 2.039-6.421 3.602-11.28 1.563-4.859.713-5.98.713-5.98s-.781-4.044-4.723-6.354c-3.94-2.31-8.256-3.364-8.256-3.364s-.917-1.63-.646-3.228c.272-1.597 1.53-2.038 1.53-2.038s8.052 1.019 12.843 5.266c4.79 4.247 4.757 10.295 4.79 10.67.035.373.474 1.188 3.296 1.29 2.823.102 3.466-1.29 3.466-1.29l-3.262 7.067s-.611-.646-1.427-.816c-.815-.17-2.004.068-2.004.068s-2.787.748-2.888 7.747c-.102 7 2.922 8.154 2.922 8.154s3.364 2.753 6.795 2.04z" fill="url(#paint0_linear)"/><path d="M64.994 59.525c.374 1.699.476 3.092.272 4.723-.204 1.63-1.189 3.703-2.31 5.334-1.122 1.631-3.84 2.447-3.84 2.447H46.001V9.373h8.97s.644.14 1.053.951c.298.59.408 1.088.408 2.209s-1.903 2.854-1.903 2.854-1.393 1.359-1.868 2.31c-.476.952.237 1.767.237 1.767s.724.619 2.209 1.733c1.474 1.106 3.435 2.364 4.315 3.126 1.767 1.529 4.689 4.553 5.47 5.946.782 1.393 2.625 4.522 3.364 6.796.49 1.503.577 3.005.442 3.397-.34.986-1.053 1.733-1.427 1.971-.374.238-2.65 1.257-4.315 2.31-1.665 1.054-2.888 3.398-2.888 3.398s-.952 2.48 0 4.247c.951 1.767 2.446 2.685 3.092 3.364.645.68 1.46 2.073 1.834 3.772z" fill="#A97456"/><path d="M28.187 59.525c-.374 1.699-.476 3.092-.272 4.723.204 1.63 1.19 3.703 2.31 5.334 1.122 1.631 3.84 2.447 3.84 2.447h13.116V9.373h-8.97s-.644.14-1.054.951c-.297.59-.407 1.088-.407 2.209s1.902 2.854 1.902 2.854 1.393 1.359 1.87 2.31c.475.952-.239 1.767-.239 1.767s-.723.619-2.208 1.733c-1.474 1.106-3.435 2.364-4.316 3.126-1.766 1.529-4.688 4.553-5.47 5.946-.781 1.393-2.624 4.522-3.364 6.796-.489 1.503-.577 3.005-.441 3.397.34.986 1.053 1.733 1.427 1.971.373.238 2.65 1.257 4.315 2.31 1.665 1.054 2.888 3.398 2.888 3.398s.951 2.48 0 4.247-2.446 2.685-3.092 3.364c-.646.68-1.461 2.073-1.835 3.772z" fill="#A97456"/><rect x="36" y="9" width="21" height="6" rx="3" fill="url(#paint1_linear)"/><rect x="28.773" y="69.684" width="36.832" height="4.417" rx="2.209" fill="url(#paint2_linear)"/><path fill="#C4C4C4" d="M41.55 78.994h.068v.068h-.068z"/><path d="M46.66 35.572l-6.164 10.51c-1.296 2.222-1.396 5.047 0 7.426 2.097 3.576 6.763 4.813 10.42 2.762 3.659-2.05 4.924-6.612 2.826-10.188l-6.163-10.51a.536.536 0 00-.92 0z" fill="url(#paint3_linear)"/><path d="M348.473 35.166l-3.844 6.704a4.773 4.773 0 000 4.736 4.761 4.761 0 008.261-4.736l-3.844-6.704a.33.33 0 00-.573 0z" fill="#A97456"/><defs><linearGradient id="paint0_linear" x1="2.293" y1="18.398" x2="48.085" y2="63.334" gradientUnits="userSpaceOnUse"><stop stop-color="#CF9D80"/><stop offset="1" stop-color="#CF9D80" stop-opacity=".8"/></linearGradient><linearGradient id="paint1_linear" x1="36.192" y1="9.288" x2="37.766" y2="18.783" gradientUnits="userSpaceOnUse"><stop stop-color="#CF9D80"/><stop offset="1" stop-color="#CF9D80" stop-opacity=".8"/></linearGradient><linearGradient id="paint2_linear" x1="29.11" y1="69.896" x2="29.608" y2="77.043" gradientUnits="userSpaceOnUse"><stop stop-color="#CF9D80"/><stop offset="1" stop-color="#CF9D80"/></linearGradient><linearGradient id="paint3_linear" x1="39.626" y1="36.365" x2="57.181" y2="57.413" gradientUnits="userSpaceOnUse"><stop stop-color="#CF9D80"/><stop offset="1" stop-color="#CF9D80" stop-opacity=".8"/></linearGradient></defs></svg>